<svg id="Layer_1" data-name="Layer 1" xmlns="http://www.w3.org/2000/svg" viewBox="0 0 883.68 573.44"><defs><style>.cls-1{font-size:76px;font-family:Arial-BoldMT, Arial;font-weight:700;letter-spacing:0.15em;}.cls-2,.cls-3{fill:none;stroke:#000;stroke-miterlimit:10;}.cls-2{stroke-width:37px;}.cls-3{stroke-width:22px;}</style></defs><text class="cls-1" transform="translate(20.5 544.83)">BRODY’S CLOSET</text><path id="hanger_bottom" class="cls-2" d="M568.48,467.17l37.84-.46c.3,0,.58,0,.88,0l783.25.51c12.93,0,19.93-15.29,11.33-24.94-36.31-40.77-144.81-97.34-172.09-108.66-114.8-47.65-167.27-118-173.47-126.44-12.68-17.21-39.41-25.33-67.08-25.12-30.62.23-62.39,10.65-77.52,30.2-28,36.2-18.65,53.25-188.31,133.6q-16.54,7.83-32.47,16.9c-30.19,17.19-90.75,52.76-120,77.59A37.85,37.85,0,0,0,561,453c-3.05,6.51-4.25,14.3,7.53,14.16" transform="translate(-540.39 -15.37)"/><path id="hanger_top" class="cls-3" d="M989.12,179.2V147.89a40,40,0,0,0-7.74-23.7c-7.65-10.39-18.91-27.7-24-45.38a40.3,40.3,0,0,1,29.73-50.23c22.57-5.28,52.95-4.69,53.87,43.77" transform="translate(-540.39 -15.37)"/></svg>